<svg id="sjd-text" width="857" height="137" viewBox="0 0 857 137" fill="none" xmlns="http://www.w3.org/2000/svg">
<path d="M34.152 57.24C34.984 56.792 35.848 56.952 36.744 57.72C34.888 65.4 33.896 69.496 33.768 70.008C32.168 77.432 30.984 83.192 30.216 87.288C29.384 92.216 29.096 96.536 29.352 100.248C29.544 103.32 29.96 105.944 30.6 108.12C31.496 111.448 33.384 113.912 36.264 115.512C39.144 117.112 42.248 117.432 45.576 116.472C49.416 115.32 52.552 112.952 54.984 109.368C59.144 103.16 61.256 96.056 61.32 88.056C61.384 80.568 60.04 73.24 57.288 66.072C55.112 60.312 52.104 55.832 48.264 52.632C45.64 50.52 42.216 48.92 37.992 47.832C36.712 47.576 35.304 47.352 33.768 47.16C32.296 46.904 31.016 46.744 29.928 46.68C28.904 46.552 27.496 46.456 25.704 46.392C23.912 46.264 22.568 46.168 21.672 46.104C17.64 45.72 14.088 45.272 11.016 44.76C9.544 44.504 7.912 43.896 6.12 42.936C2.408 40.824 1.064 37.656 2.088 33.432C2.856 30.104 4.52 27.064 7.08 24.312C14.824 15.672 24.488 10.968 36.072 10.2C41 9.81599 45.416 10.904 49.32 13.464C53.736 16.408 55.592 20.568 54.888 25.944C54.696 27.8 54.408 29.336 54.024 30.552C53.64 32.024 53.096 32.92 52.392 33.24C51.688 33.56 50.504 33.464 48.84 32.952C49.032 31.672 49.16 31 49.224 30.936C49.928 28.696 50.216 26.36 50.088 23.928C49.96 21.176 48.904 18.904 46.92 17.112C43.656 14.04 40.104 12.696 36.264 13.08C24.936 14.04 16.168 19.256 9.96 28.728C9.256 29.816 8.616 31.352 8.04 33.336C7.08 36.536 8.072 38.968 11.016 40.632C12.168 41.272 13.416 41.72 14.76 41.976C16.936 42.36 19.08 42.584 21.192 42.648C22.472 42.712 24.296 42.744 26.664 42.744C29.096 42.744 30.792 42.744 31.752 42.744C38.92 42.872 44.744 43.48 49.224 44.568C57.224 46.424 63.56 49.816 68.232 54.744C72.776 59.48 75.816 65.144 77.352 71.736C78.696 77.112 79.016 82.2 78.312 87C76.84 97.496 71.624 106.552 62.664 114.168C56.648 119.288 49.416 122.2 40.968 122.904C38.984 123.032 37.128 122.904 35.4 122.52C30.92 121.496 27.592 118.392 25.416 113.208C24.584 111.16 24.104 108.856 23.976 106.296C23.528 98.168 24.488 89.592 26.856 80.568C27.176 79.288 28.968 72.536 32.232 60.312C32.616 58.776 33.256 57.752 34.152 57.24ZM64.296 82.584C65.128 80.152 64.712 76.152 63.048 70.584C61.448 64.952 59.496 61.272 57.192 59.544C57.32 60.12 57.384 60.44 57.384 60.504C60.392 66.456 62.408 72.888 63.432 79.8C63.432 79.864 63.72 80.792 64.296 82.584ZM68.04 79.8C68.04 79.8 68.232 80.152 68.616 80.856C69.128 78.36 69 75.608 68.232 72.6C67.464 69.592 66.312 67.192 64.776 65.4C66.44 72.632 67.528 77.432 68.04 79.8ZM75.624 78.072C76.008 76.024 75.912 74.168 75.336 72.504C74.824 70.84 73.96 68.92 72.744 66.744C72.744 67.64 72.744 68.12 72.744 68.184C72.808 68.376 73.16 69.72 73.8 72.216C74.44 74.712 75.048 76.664 75.624 78.072ZM50.856 24.888C50.856 24.696 50.856 24.376 50.856 23.928C50.856 23.48 50.856 23.16 50.856 22.968C50.856 22.968 50.792 22.968 50.664 22.968C50.6 22.968 50.568 22.968 50.568 22.968L50.664 24.888C50.664 24.888 50.696 24.888 50.76 24.888C50.824 24.888 50.856 24.888 50.856 24.888ZM140.747 73.848C140.811 74.744 140.843 75.224 140.843 75.288C140.715 75.736 140.395 76.76 139.883 78.36C139.371 79.896 139.019 80.984 138.827 81.624C138.635 82.264 138.283 83.256 137.771 84.6C137.323 85.944 136.907 87.032 136.523 87.864C136.203 88.696 135.787 89.656 135.275 90.744C134.827 91.832 134.347 92.824 133.835 93.72C133.259 94.808 132.363 96.056 131.147 97.464C130.187 98.616 128.875 99.416 127.211 99.864C125.291 100.312 123.723 100.28 122.507 99.768C121.291 99.32 120.203 98.36 119.243 96.888C117.771 94.648 116.587 90.968 115.691 85.848C114.987 82.072 114.795 76.216 115.115 68.28C115.115 67.384 115.115 66.552 115.115 65.784C115.115 65.72 114.955 65.336 114.635 64.632C113.803 65.656 113.355 66.168 113.291 66.168C109.899 73.4 107.851 77.912 107.147 79.704C106.955 80.152 105.291 84.696 102.155 93.336C101.451 95.128 101.003 96.28 100.811 96.792C100.235 98.072 99.0833 99 97.3553 99.576C94.2193 100.6 91.5953 99.576 89.4833 96.504C86.9233 92.792 85.1313 88.888 84.1073 84.792C83.9793 84.216 83.7553 83.384 83.4352 82.296C83.1152 81.144 82.8912 80.248 82.7632 79.608C82.5712 78.904 82.3792 78.104 82.1872 77.208C81.9952 76.248 81.8672 75.352 81.8032 74.52C81.7392 74.008 81.6432 73.08 81.5152 71.736C81.3872 70.328 81.2912 69.304 81.2272 68.664C81.1632 68.024 81.0992 67.096 81.0352 65.88C80.9712 64.6 80.9392 63.576 80.9392 62.808C80.9392 61.976 80.9712 61.048 81.0352 60.024C81.0992 58.936 81.1952 57.912 81.3232 56.952C81.5152 55.416 81.7712 53.144 82.0912 50.136C82.4112 47.128 82.6032 45.432 82.6672 45.048C83.4352 38.904 85.3233 32.952 88.3313 27.192C90.2513 23.608 92.8113 20.824 96.0113 18.84C99.5953 16.792 102.571 16.344 104.939 17.496C107.371 18.584 109.099 20.984 110.123 24.696C110.891 27.64 111.115 30.712 110.795 33.912C109.707 43.32 107.083 52.056 102.923 60.12C101.323 63.192 99.4993 65.464 97.4513 66.936C97.3233 69.304 97.5153 73.048 98.0273 78.168C98.5393 83.224 99.0833 86.456 99.6593 87.864C99.9793 87.672 100.235 87.448 100.427 87.192C100.619 86.872 100.811 86.456 101.003 85.944C101.195 85.432 101.323 85.112 101.387 84.984C107.211 72.312 110.315 65.592 110.699 64.824C111.467 63.16 112.491 61.496 113.771 59.832C114.411 58.936 115.371 58.008 116.651 57.048C118.059 55.96 119.755 55.704 121.739 56.28C123.787 56.856 125.067 58.04 125.579 59.832C126.731 63.8 127.371 66.168 127.499 66.936C128.139 72.888 128.075 77.816 127.307 81.72C126.859 83.768 126.411 86.52 125.963 89.976C125.771 91.384 125.707 92.728 125.771 94.008C125.771 94.648 126.027 95.416 126.539 96.312C126.667 96.632 126.923 96.824 127.307 96.888C127.691 96.952 128.043 96.824 128.363 96.504C129.259 95.544 129.867 94.744 130.187 94.104C131.787 90.968 133.099 88.152 134.123 85.656C134.507 84.632 135.051 83.16 135.755 81.24C136.523 79.256 137.067 77.848 137.387 77.016C137.771 76.12 138.315 75.256 139.019 74.424C139.083 74.36 139.179 74.296 139.307 74.232C139.499 74.168 139.723 74.104 139.979 74.04C140.299 73.976 140.555 73.912 140.747 73.848ZM94.1873 54.168C94.1233 54.232 93.9633 54.264 93.7073 54.264C93.7713 54.456 93.8033 54.744 93.8033 55.128C93.8033 55.448 93.8033 55.672 93.8033 55.8C93.9953 55.8 94.1233 55.8 94.1873 55.8V54.168ZM90.0593 94.488C91.0833 96.408 92.1393 97.624 93.2273 98.136C93.0993 97.56 93.0353 97.272 93.0353 97.272C89.7073 91.704 87.4033 85.368 86.1233 78.264C85.9953 77.688 85.7713 76.664 85.4513 75.192C85.1313 73.656 84.9073 72.504 84.7793 71.736C84.6513 70.904 84.5233 69.88 84.3953 68.664C84.3313 67.384 84.3313 66.2 84.3953 65.112C84.3953 64.728 84.3633 64.312 84.2993 63.864C84.2353 63.416 84.1393 62.904 84.0113 62.328C83.9473 61.688 83.8833 61.24 83.8193 60.984C83.4992 61.368 83.3712 61.784 83.4352 62.232C83.4352 62.744 83.4672 63.832 83.5312 65.496C83.6593 67.16 83.7553 68.344 83.8193 69.048C83.8833 69.752 83.9793 70.84 84.1073 72.312C84.2353 73.72 84.3633 74.872 84.4913 75.768C84.6193 76.664 84.7793 77.72 84.9713 78.936C85.1633 80.152 85.4193 81.304 85.7393 82.392C87.0833 87.768 88.5233 91.8 90.0593 94.488ZM94.5713 96.696C94.7633 96.632 94.9873 96.568 95.2433 96.504C93.3873 91.192 92.3953 88.312 92.2673 87.864C91.4993 85.112 90.7953 82.232 90.1553 79.224C89.6433 76.728 89.1633 73.688 88.7153 70.104C88.6513 69.656 88.3633 66.68 87.8513 61.176C87.5953 66.296 87.9473 71.928 88.9073 78.072C89.8033 83.64 90.9233 88.312 92.2673 92.088C93.1633 94.456 93.9313 95.992 94.5713 96.696ZM97.0673 62.136C97.3233 62.008 97.5473 61.88 97.7393 61.752C97.9953 61.624 98.1873 61.464 98.3153 61.272C98.4433 61.08 98.5393 60.92 98.6033 60.792C98.6673 60.664 98.7633 60.472 98.8913 60.216C99.0193 59.96 99.1153 59.768 99.1793 59.64C104.491 49.208 107.115 39.16 107.051 29.496C107.051 26.232 105.643 23.256 102.827 20.568C102.827 20.568 102.603 20.504 102.155 20.376C101.195 20.632 100.459 21.432 99.9473 22.776C99.8193 23.096 99.5633 23.736 99.1793 24.696C98.8593 25.592 98.6033 26.296 98.4113 26.808C98.2833 27.256 98.0913 27.864 97.8353 28.632C97.6433 29.336 97.5153 30.008 97.4513 30.648C96.8113 36.024 96.3953 41.752 96.2032 47.832C96.1393 48.92 96.2993 53.24 96.6833 60.792C96.6833 60.856 96.8113 61.304 97.0673 62.136ZM119.627 60.12C119.563 60.184 119.435 60.248 119.243 60.312C119.115 60.312 119.019 60.344 118.955 60.408C119.083 60.856 119.403 62.36 119.915 64.92C120.619 63 120.523 61.4 119.627 60.12ZM117.131 64.056V62.616C117.067 62.616 116.971 62.648 116.843 62.712C116.779 62.712 116.747 62.712 116.747 62.712C116.747 62.84 116.747 63.064 116.747 63.384C116.811 63.704 116.875 63.928 116.939 64.056C116.939 64.056 117.003 64.056 117.131 64.056ZM118.955 92.088C118.955 94.52 119.691 96.28 121.163 97.368C120.267 95.192 119.531 93.432 118.955 92.088ZM125.579 67.8C125.899 64.856 125.387 62.392 124.043 60.408C124.107 62.392 124.619 64.856 125.579 67.8ZM189.47 82.776C189.47 83.352 189.47 83.64 189.47 83.64C186.654 89.464 184.958 92.888 184.382 93.912C182.846 96.664 180.478 98.264 177.278 98.712C174.526 99.096 172.094 98.456 169.982 96.792C167.998 95.192 166.366 93.112 165.086 90.552C165.022 90.36 164.894 90.072 164.702 89.688C164.51 89.24 164.35 88.92 164.222 88.728C164.158 88.472 163.998 88.184 163.742 87.864C163.55 87.48 163.326 87.192 163.07 87C162.494 87.448 161.854 88.6 161.15 90.456C159.998 93.592 158.462 96.632 156.542 99.576C154.046 103.352 150.494 105.208 145.886 105.144C142.878 105.144 140.414 103.864 138.494 101.304C135.997 97.976 134.749 94.168 134.749 89.88C134.749 79.768 138.11 70.712 144.83 62.712C147.774 59.192 151.39 56.696 155.678 55.224C157.278 54.648 159.102 54.488 161.15 54.744C163.646 55 165.278 56.344 166.046 58.776C166.11 58.84 166.398 59.832 166.91 61.752C168.126 60.856 169.086 60.504 169.79 60.696C170.558 60.824 171.166 61.496 171.614 62.712C171.998 63.672 172.638 66.136 173.534 70.104C173.598 70.296 173.918 72.024 174.494 75.288C174.686 74.392 174.782 73.592 174.782 72.888C174.846 72.12 174.782 71.128 174.59 69.912C174.462 68.632 174.398 67.96 174.398 67.896C174.334 67.256 174.046 66.2 173.534 64.728C173.022 63.192 172.734 61.88 172.67 60.792C173.63 61.752 174.11 62.232 174.11 62.232C175.39 64.472 176.222 67.096 176.606 70.104C177.31 76.056 177.246 81.624 176.414 86.808C176.286 87.704 176.19 88.824 176.126 90.168C176.062 91 176.094 91.704 176.222 92.28C176.67 94.136 177.406 95.192 178.43 95.448C179.39 95.64 180.35 94.968 181.31 93.432C181.502 93.112 182.782 90.808 185.15 86.52C186.238 84.6 186.878 83.512 187.07 83.256C187.774 82.232 188.574 82.072 189.47 82.776ZM138.206 97.56C138.654 98.776 139.038 99.576 139.358 99.96C139.678 100.344 140.19 100.76 140.894 101.208C139.422 96.536 138.206 92.792 137.245 89.976C136.797 92.28 137.117 94.808 138.206 97.56ZM140.894 91.704C140.702 93.688 140.766 95.256 141.086 96.408C141.406 97.56 142.046 98.552 143.006 99.384C142.622 95.544 141.918 92.984 140.894 91.704ZM147.23 99C147.294 98.936 147.422 98.872 147.614 98.808C147.422 98.296 147.23 97.688 147.038 96.984C146.974 97.048 146.878 97.112 146.75 97.176C146.622 97.176 146.526 97.208 146.462 97.272C146.526 97.464 146.654 97.752 146.846 98.136C147.038 98.52 147.166 98.808 147.23 99ZM161.342 73.56C161.278 70.744 161.758 67 162.781 62.328C162.078 61.304 161.694 60.76 161.63 60.696C160.926 59.672 160.318 59.16 159.806 59.16C159.294 59.16 158.654 59.64 157.886 60.6C156.734 62.2 155.71 63.96 154.814 65.88C153.534 68.568 152.19 73.112 150.782 79.512C149.438 85.528 148.702 90.808 148.574 95.352C148.446 97.784 149.022 99.512 150.302 100.536C151.582 99.704 152.894 98.168 154.238 95.928C155.838 93.304 157.662 89.176 159.71 83.544C160.926 80.152 161.47 76.824 161.342 73.56ZM164.798 81.24C164.542 83.032 164.862 85.24 165.758 87.864C166.654 90.424 167.774 92.376 169.118 93.72C167.326 87.768 166.078 83.64 165.374 81.336C165.374 81.272 165.278 81.24 165.086 81.24C165.086 81.24 164.99 81.24 164.798 81.24ZM171.23 92.952C171.422 92.696 171.518 92.472 171.518 92.28C171.518 92.024 171.454 91.736 171.326 91.416C171.262 91.032 171.198 90.808 171.134 90.744C171.07 90.424 170.878 89.656 170.558 88.44C170.302 87.224 170.11 86.296 169.982 85.656C169.79 84.12 169.534 81.944 169.214 79.128C168.958 76.312 168.798 74.616 168.734 74.04C168.734 73.912 168.702 73.656 168.638 73.272C168.638 72.824 168.606 72.504 168.542 72.312C168.542 72.12 168.446 71.864 168.254 71.544C168.126 71.224 167.902 70.936 167.582 70.68C167.518 72.216 167.486 73.016 167.486 73.08C167.806 77.304 168.062 80.28 168.254 82.008C168.51 84.248 168.862 86.392 169.31 88.44C169.758 90.616 170.398 92.12 171.23 92.952ZM238.802 75.288C239.186 75.224 239.474 75.256 239.666 75.384C239.858 75.512 240.018 76.024 240.146 76.92C240.146 77.048 240.082 77.336 239.954 77.784C235.474 91.672 232.914 99.608 232.274 101.592C231.634 103.512 230.386 106.232 228.53 109.752C228.018 110.84 227.026 112.28 225.554 114.072C223.826 116.312 221.266 117.24 217.874 116.856C216.722 116.728 215.634 116.184 214.61 115.224C213.202 113.944 212.018 112.28 211.058 110.232C207.602 102.68 206.802 95.032 208.658 87.288C208.786 86.84 208.978 86.04 209.234 84.888C209.554 83.736 209.778 82.84 209.906 82.2C209.906 82.2 209.97 81.592 210.098 80.376C208.114 81.272 207.09 81.752 207.026 81.816C202.226 84.248 197.138 84.504 191.762 82.584C186.77 80.728 183.89 77.016 183.122 71.448C182.674 68.184 182.93 65.144 183.89 62.328C185.554 57.464 187.314 53.752 189.17 51.192C191.282 48.248 193.842 46.264 196.85 45.24C197.81 44.92 198.706 44.76 199.538 44.76C202.29 44.632 204.05 45.88 204.818 48.504C205.586 51 205.778 53.656 205.394 56.472C204.498 63.64 202.418 69.944 199.154 75.384C199.09 75.512 198.962 75.704 198.77 75.96C198.642 76.216 198.546 76.44 198.482 76.632C198.418 76.76 198.322 76.952 198.194 77.208C198.13 77.4 198.13 77.624 198.194 77.88C198.258 78.072 198.354 78.296 198.482 78.552C199.442 80.024 200.754 80.696 202.418 80.568C203.442 80.44 204.498 80.12 205.586 79.608C208.85 78.072 211.442 76.248 213.362 74.136C214.834 72.536 216.242 71.512 217.586 71.064C218.482 70.68 219.09 70.584 219.41 70.776C219.794 70.904 220.306 71.48 220.946 72.504C221.138 72.184 221.362 71.768 221.618 71.256C222.066 71.896 222.29 72.248 222.29 72.312C222.29 72.888 222.354 74.04 222.482 75.768C222.61 77.496 222.674 78.68 222.674 79.32C222.674 79.896 222.674 81.048 222.674 82.776C222.418 85.08 221.97 88.344 221.33 92.568C220.754 96.792 220.37 99.64 220.178 101.112C219.986 103.032 219.89 105.816 219.89 109.464C219.89 111.256 220.434 112.632 221.522 113.592C221.778 113.528 222.002 113.464 222.194 113.4C222.45 113.336 222.642 113.208 222.77 113.016C222.962 112.824 223.09 112.664 223.154 112.536C223.282 112.408 223.442 112.184 223.634 111.864C223.826 111.608 223.954 111.448 224.018 111.384C225.81 108.632 227.538 104.792 229.202 99.864C229.97 97.688 231.122 94.232 232.658 89.496C234.258 84.696 235.474 81.048 236.306 78.552C236.626 77.592 237.202 76.632 238.034 75.672C238.162 75.48 238.418 75.352 238.802 75.288ZM185.522 65.784C185.266 67.576 185.138 68.888 185.138 69.72C185.074 70.552 185.234 71.672 185.618 73.08C186.002 74.424 186.706 75.576 187.73 76.536C187.154 74.36 186.866 73.208 186.866 73.08C186.802 72.824 186.578 71.512 186.194 69.144C186.13 68.888 186.098 68.536 186.098 68.088C186.098 67.576 186.066 67.128 186.002 66.744C185.938 66.36 185.778 66.04 185.522 65.784ZM189.458 65.016C187.858 69.56 188.274 73.208 190.706 75.96C190.642 74.936 190.45 73.208 190.13 70.776C189.81 68.28 189.586 66.36 189.458 65.016ZM195.218 74.04V67.896C194.898 68.088 194.738 68.184 194.738 68.184C194.354 70.488 194.514 72.44 195.218 74.04ZM195.506 63.288C195.57 62.584 195.602 62.008 195.602 61.56C195.346 61.816 195.186 62.104 195.122 62.424C195.122 62.488 195.122 62.776 195.122 63.288C195.186 63.288 195.218 63.288 195.218 63.288C195.346 63.288 195.442 63.288 195.506 63.288ZM197.042 69.24C197.042 69.24 197.202 69.592 197.522 70.296C198.226 69.144 198.578 68.568 198.578 68.568C199.73 65.624 200.402 63.672 200.594 62.712C201.746 58.232 202.322 55.096 202.322 53.304C202.386 51.512 201.746 50.136 200.402 49.176C199.954 49.688 199.73 49.976 199.73 50.04C199.346 50.936 199.058 51.704 198.866 52.344C198.418 54.008 198.066 55.736 197.81 57.528C197.618 59.32 197.458 61.496 197.33 64.056C197.202 66.552 197.106 68.28 197.042 69.24ZM210.29 96.504C209.714 98.744 209.842 101.624 210.674 105.144C211.57 108.728 212.722 111.16 214.13 112.44C212.53 108.408 211.25 103.096 210.29 96.504ZM213.458 98.328C213.138 100.76 213.202 103.224 213.65 105.72C214.098 108.216 214.898 110.36 216.05 112.152C215.858 111.192 215.442 109.048 214.802 105.72C214.226 102.456 213.778 99.992 213.458 98.328ZM279.053 72.024C279.117 72.088 279.213 72.312 279.341 72.696C278.509 73.336 278.093 73.656 278.093 73.656C273.613 75.64 269.965 76.696 267.149 76.824C265.997 76.888 265.293 77.048 265.036 77.304C264.781 77.56 264.493 78.296 264.173 79.512C263.213 83.352 262.413 86.232 261.773 88.152C260.877 90.84 259.501 93.24 257.645 95.352C254.957 98.296 251.437 99.64 247.085 99.384C244.205 99.192 241.645 97.592 239.405 94.584C235.628 89.528 233.964 83.832 234.412 77.496C234.668 73.208 235.468 69.176 236.812 65.4C238.541 60.664 240.973 57.464 244.109 55.8C245.709 54.968 247.149 54.424 248.429 54.168C249.517 53.912 250.701 54.008 251.981 54.456C253.581 54.968 254.765 55.192 255.533 55.128C256.813 55 257.997 55.224 259.085 55.8C261.453 56.888 263.149 59.224 264.173 62.808C264.685 64.664 264.973 67.416 265.036 71.064C265.036 71.256 265.036 71.576 265.036 72.024C265.036 72.408 265.036 72.696 265.036 72.888C265.101 73.848 265.613 74.392 266.573 74.52C268.813 74.712 271.053 74.424 273.293 73.656C273.549 73.592 274.157 73.368 275.117 72.984C276.077 72.6 276.813 72.344 277.325 72.216C277.389 72.152 277.965 72.088 279.053 72.024ZM240.653 93.912C240.653 93.976 240.877 93.976 241.325 93.912C238.893 89.176 237.357 84.056 236.716 78.552C236.204 81.048 236.3 83.736 237.005 86.616C237.773 89.496 238.989 91.928 240.653 93.912ZM239.885 78.84C239.501 81.4 239.565 83.896 240.077 86.328C240.653 88.696 241.581 90.648 242.861 92.184C242.285 89.624 241.293 85.176 239.885 78.84ZM245.453 86.136C245.197 88.056 245.645 89.784 246.797 91.32C246.541 89.016 246.093 87.288 245.453 86.136ZM260.812 78.648C260.812 78.584 260.781 77.784 260.717 76.248C255.469 73.944 251.981 70.424 250.253 65.688C249.677 65.56 249.293 65.624 249.101 65.88C248.909 66.072 248.749 66.424 248.621 66.936C248.621 67.064 248.621 67.128 248.621 67.128C247.341 73.016 246.829 78.424 247.085 83.352C247.149 84.824 247.565 87.576 248.333 91.608C248.461 92.312 248.845 93.144 249.484 94.104C251.021 96.344 252.717 96.472 254.573 94.488C255.661 93.336 256.589 91.992 257.357 90.456C258.829 87.512 259.981 83.576 260.812 78.648ZM261.005 72.312C261.517 70.84 261.677 69.048 261.484 66.936C261.357 64.824 260.909 63.192 260.141 62.04C260.077 61.976 259.981 61.848 259.853 61.656C259.341 60.824 258.925 60.216 258.605 59.832C258.285 59.384 257.773 58.936 257.069 58.488C256.365 58.04 255.629 57.784 254.861 57.72C253.389 58.744 252.877 60.376 253.325 62.616C254.093 66.392 256.269 69.528 259.853 72.024C259.917 72.024 260.301 72.12 261.005 72.312ZM325.547 74.616C325.611 74.68 325.675 74.84 325.739 75.096C325.867 75.288 325.931 75.48 325.931 75.672C325.995 75.864 326.027 76.024 326.027 76.152C323.787 83.768 321.675 89.336 319.691 92.856C318.027 95.736 315.595 97.144 312.395 97.08C309.835 97.08 307.787 96.12 306.251 94.2C303.115 90.36 301.163 85.112 300.395 78.456C300.203 76.792 300.107 75.16 300.107 73.56C300.107 71.96 300.171 69.784 300.299 67.032C300.427 64.28 300.491 62.648 300.491 62.136C300.555 60.024 300.363 58.52 299.915 57.624C299.787 57.752 299.595 57.944 299.339 58.2C299.147 58.456 298.987 58.68 298.859 58.872C298.731 59 298.635 59.16 298.571 59.352C297.227 63.384 296.299 66.328 295.787 68.184C295.339 69.976 294.699 72.6 293.867 76.056C293.035 79.512 292.395 82.104 291.947 83.832C291.435 85.816 290.635 88.344 289.547 91.416C289.291 92.184 288.747 93.304 287.915 94.776C287.083 96.184 285.611 96.952 283.499 97.08C281.451 97.144 279.915 96.408 278.891 94.872C277.291 92.312 276.235 90.008 275.723 87.96C274.187 81.432 273.355 75.416 273.227 69.912C273.163 65.944 273.579 62.36 274.475 59.16C274.475 59.16 274.795 58.456 275.435 57.048C275.819 58.264 276.011 58.872 276.011 58.872C275.947 59.384 275.851 60.056 275.723 60.888C275.595 61.72 275.499 62.296 275.435 62.616C274.731 68.248 275.019 75.224 276.299 83.544C276.619 85.656 277.003 87.672 277.451 89.592C277.771 90.936 278.379 92.12 279.275 93.144C279.211 92.184 279.147 91.672 279.083 91.608C277.995 88.344 277.259 84.12 276.875 78.936C276.555 74.2 276.363 70.168 276.299 66.84C276.299 65.496 276.491 62.744 276.875 58.584C276.939 57.24 277.387 56.344 278.219 55.896C278.411 56.152 278.539 56.44 278.603 56.76C278.731 57.016 278.795 57.272 278.795 57.528C278.795 57.72 278.763 58.008 278.699 58.392C278.699 58.776 278.699 59.032 278.699 59.16C278.699 59.608 278.635 61.496 278.507 64.824C278.443 68.152 278.443 70.68 278.507 72.408C278.635 74.904 279.051 80.472 279.755 89.112C279.883 90.072 280.299 91 281.003 91.896C280.939 90.808 280.907 90.232 280.907 90.168C280.843 89.528 280.715 88.568 280.523 87.288C280.395 86.008 280.267 84.856 280.139 83.832C280.075 82.808 280.043 81.848 280.043 80.952C279.979 78.136 279.947 70.296 279.947 57.432C279.947 57.368 279.947 57.208 279.947 56.952C279.947 56.632 279.947 56.44 279.947 56.376C279.947 56.248 279.979 56.088 280.043 55.896C280.107 55.64 280.203 55.48 280.331 55.416C280.459 55.288 280.619 55.16 280.811 55.032C281.707 54.648 282.411 55.256 282.923 56.856C283.243 57.624 283.403 58.52 283.403 59.544C283.531 61.272 283.659 63.8 283.787 67.128C283.915 70.392 283.979 72.184 283.979 72.504C284.043 72.568 284.107 73.272 284.171 74.616C284.235 74.616 284.331 74.616 284.459 74.616C284.651 74.616 284.747 74.616 284.747 74.616C284.875 68.984 284.939 65.912 284.939 65.4C284.811 60.152 284.779 57.08 284.843 56.184C285.355 57.336 285.611 57.944 285.611 58.008C286.123 61.144 286.379 63.288 286.379 64.44C286.635 71.288 286.347 77.752 285.515 83.832C285.451 84.6 285.291 86.552 285.035 89.688C285.035 89.752 285.195 90.008 285.515 90.456C286.027 89.688 286.283 89.272 286.283 89.208C288.331 82.808 289.963 77.624 291.179 73.656C291.499 72.76 292.075 70.872 292.907 67.992C293.739 65.048 294.411 62.776 294.923 61.176C295.563 59.32 296.331 57.656 297.227 56.184C298.763 53.88 300.843 52.728 303.467 52.728C306.091 52.728 308.171 53.848 309.707 56.088C310.795 57.752 311.659 59.512 312.299 61.368C314.283 67 314.827 73.72 313.931 81.528C313.611 84.152 313.323 87 313.067 90.072C312.939 91.544 313.227 92.728 313.931 93.624C314.187 93.944 314.475 94.136 314.795 94.2C315.179 94.264 315.499 94.136 315.755 93.816C316.779 92.472 317.451 91.448 317.771 90.744C318.411 89.272 319.947 85.336 322.379 78.936C322.507 78.68 322.667 78.264 322.859 77.688C323.051 77.112 323.211 76.664 323.339 76.344C323.723 75.32 324.459 74.744 325.547 74.616ZM306.059 74.712C306.571 71.832 306.635 68.568 306.251 64.92C305.931 61.272 305.259 58.712 304.235 57.24C304.939 62.936 305.323 65.976 305.387 66.36C305.387 66.808 305.611 69.592 306.059 74.712ZM306.059 92.28C306.123 92.28 306.507 92.664 307.211 93.432C307.147 92.536 306.859 91.512 306.347 90.36C304.747 86.712 303.787 82.84 303.467 78.744C303.403 77.976 303.275 76.6 303.083 74.616C302.955 72.568 302.859 71.16 302.795 70.392C302.795 69.624 302.763 68.248 302.699 66.264C302.635 64.28 302.667 62.904 302.795 62.136C302.859 60.92 302.859 59.992 302.795 59.352C302.731 59.224 302.507 58.456 302.123 57.048C302.123 57.048 302.059 57.08 301.931 57.144C301.803 57.144 301.707 57.144 301.643 57.144C301.899 60.792 302.059 62.712 302.123 62.904C302.123 64.12 302.123 65.944 302.123 68.376C302.187 70.744 302.251 72.888 302.315 74.808C302.379 76.664 302.507 78.456 302.699 80.184C303.275 85.368 304.395 89.4 306.059 92.28ZM306.635 79.608C306.443 84.792 307.179 88.728 308.843 91.416C308.587 90.264 308.203 88.376 307.691 85.752C307.243 83.128 306.891 81.08 306.635 79.608ZM311.627 70.008C312.523 66.168 311.819 62.776 309.515 59.832C310.475 64.312 311.179 67.704 311.627 70.008ZM408.01 14.904C408.01 14.712 408.01 13.112 408.01 10.104C406.858 10.616 406.25 10.872 406.186 10.872C401.13 14.2 393.866 17.304 384.394 20.184C381.13 21.208 378.09 22.232 375.274 23.256C372.074 24.472 369.482 26.264 367.498 28.632C366.666 29.592 366.09 30.456 365.77 31.224C365.514 31.992 365.322 33.048 365.194 34.392C366.41 35.096 367.082 35.48 367.21 35.544C367.594 35.8 367.754 36.152 367.69 36.6C367.69 36.984 367.498 37.304 367.114 37.56C366.282 37.944 365.162 38.008 363.754 37.752C362.346 37.432 361.386 36.92 360.874 36.216C360.682 35.96 360.554 35.576 360.49 35.064C360.042 31.672 361.034 28.856 363.466 26.616C364.874 25.336 366.602 24.088 368.65 22.872C369.354 22.424 370.026 22.04 370.666 21.72C371.37 21.4 372.234 21.08 373.258 20.76C374.282 20.376 374.986 20.12 375.37 19.992C375.754 19.864 376.618 19.608 377.962 19.224C379.37 18.84 380.106 18.648 380.17 18.648C386.762 16.728 392.01 14.904 395.914 13.176C399.818 11.448 403.242 9.304 406.186 6.744C407.722 5.4 408.682 4.344 409.066 3.576C409.642 2.296 410.794 1.46399 412.522 1.07999C414.698 0.503994 416.554 0.759995 418.09 1.84799C420.586 3.51199 422.218 5.78399 422.986 8.664C424.586 14.808 425.642 20.472 426.154 25.656C427.05 33.464 427.658 39.928 427.978 45.048C427.978 45.752 427.914 49.368 427.786 55.896C427.786 56.28 427.754 56.92 427.69 57.816C427.69 58.712 427.69 59.384 427.69 59.832C427.626 62.328 427.21 67.576 426.442 75.576C425.738 83.192 423.754 91.704 420.49 101.112C417.738 109.112 414.09 115.736 409.546 120.984C407.69 123.224 405.706 125.016 403.594 126.36C399.498 128.984 394.954 129.848 389.962 128.952C386.25 128.248 383.53 126.264 381.802 123C380.202 119.864 379.626 116.504 380.074 112.92C380.778 107.096 382.89 100.12 386.41 91.992C390.762 81.752 397.29 70.072 405.994 56.952C407.466 54.84 408.138 52.44 408.01 49.752C407.818 43.544 407.69 34.392 407.626 22.296C407.562 21.336 407.594 19.992 407.722 18.264C407.914 16.472 408.01 15.352 408.01 14.904ZM408.586 63.576C408.586 63.448 408.49 62.52 408.298 60.792C408.234 60.792 408.106 60.76 407.914 60.696C407.786 60.632 407.69 60.568 407.626 60.504C406.602 61.848 406.058 62.552 405.994 62.616C404.906 64.408 403.53 66.712 401.866 69.528C395.274 80.728 390.506 90.424 387.562 98.616C385.13 105.272 383.946 110.968 384.01 115.704C384.074 118.136 384.938 120.312 386.602 122.232C388.266 124.216 390.218 125.432 392.458 125.88C395.466 126.456 397.898 125.72 399.754 123.672C401.098 122.2 402.186 120.696 403.018 119.16C406.218 113.272 408.074 105.656 408.586 96.312C408.714 93.752 408.778 87.352 408.778 77.112C408.778 74.488 408.714 69.976 408.586 63.576ZM414.922 10.2C414.986 18.392 415.274 30.2 415.786 45.624C416.298 60.984 416.586 70.04 416.65 72.792C418.506 55.512 417.93 34.648 414.922 10.2ZM410.89 47.064C410.89 47.128 410.986 47.48 411.178 48.12C411.626 47.928 411.946 47.672 412.138 47.352C412.394 46.968 412.522 46.68 412.522 46.488C412.522 46.296 412.522 45.944 412.522 45.432C412.522 40.888 412.49 37.688 412.426 35.832C412.362 33.528 412.266 30.008 412.138 25.272C412.01 20.536 411.914 16.952 411.85 14.52C411.85 13.88 411.85 12.952 411.85 11.736C411.914 10.52 411.946 9.592 411.946 8.952C411.946 8.952 411.754 8.472 411.37 7.51199C411.178 7.76799 410.986 8.05599 410.794 8.37599C410.666 8.69599 410.57 9.04799 410.506 9.432C410.506 9.752 410.474 10.008 410.41 10.2C410.41 10.328 410.378 10.648 410.314 11.16C410.314 11.608 410.314 11.864 410.314 11.928C410.25 18.008 410.218 21.944 410.218 23.736C410.218 25.464 410.314 29.368 410.506 35.448C410.698 41.464 410.826 45.336 410.89 47.064ZM424.714 62.136C426.122 48.376 425.514 35.736 422.89 24.216C422.89 25.688 422.89 26.456 422.89 26.52C422.954 28.632 423.082 31.544 423.274 35.256C423.466 38.904 423.626 42.264 423.754 45.336C423.882 48.344 424.01 51.224 424.138 53.976C424.138 54.744 424.138 55.864 424.138 57.336C424.138 58.744 424.138 59.864 424.138 60.696C424.138 60.76 424.33 61.24 424.714 62.136ZM412.81 64.056C412.81 63.352 412.842 62.296 412.906 60.888C412.97 59.48 412.97 58.2 412.906 57.048C412.906 55.832 412.778 54.68 412.522 53.592C411.818 54.36 411.402 54.936 411.274 55.32C411.146 55.64 411.114 56.216 411.178 57.048C411.178 57.048 411.21 57.784 411.274 59.256C411.338 60.728 411.37 61.848 411.37 62.616C411.434 65.24 411.466 68.984 411.466 73.848C411.53 78.648 411.594 82.008 411.658 83.928C411.658 83.928 411.69 84.44 411.754 85.464C412.202 81.496 412.49 77.976 412.618 74.904C412.81 70.488 412.874 66.872 412.81 64.056ZM422.506 41.688V38.712C422.506 38.712 422.474 38.712 422.41 38.712V41.688C422.474 41.688 422.506 41.688 422.506 41.688ZM445.516 92.856C445.516 93.112 445.516 93.24 445.516 93.24C444.044 97.144 443.084 99.768 442.636 101.112C442.444 101.56 442.092 102.264 441.58 103.224C441.452 103.48 441.164 103.672 440.716 103.8C440.268 103.992 439.884 104.024 439.564 103.896C438.988 103.704 438.636 103.576 438.508 103.512C437.932 103.32 437.644 102.936 437.644 102.36C437.644 101.72 437.676 101.336 437.74 101.208C437.868 100.696 438.156 99.672 438.604 98.136C439.116 96.6 439.468 95.416 439.66 94.584C440.108 92.92 441.26 91.832 443.116 91.32C443.628 91.192 444.076 91.32 444.46 91.704C444.588 91.768 444.748 91.896 444.94 92.088C445.132 92.28 445.26 92.408 445.324 92.472C445.324 92.472 445.388 92.6 445.516 92.856ZM516.598 108.6C516.534 108.536 516.374 108.344 516.118 108.024C515.862 107.768 515.67 107.576 515.542 107.448C515.414 107.32 515.222 107.192 514.966 107.064C514.71 106.936 514.454 106.872 514.198 106.872C514.07 106.808 513.206 106.136 511.606 104.856C511.094 106.264 510.838 107 510.838 107.064C510.71 107.448 510.422 108.504 509.974 110.232C509.59 111.96 509.27 113.304 509.014 114.264C508.694 115.288 508.182 116.408 507.478 117.624C506.39 119.544 504.406 120.664 501.526 120.984C500.374 121.112 499.446 120.76 498.742 119.928C497.014 117.944 495.958 116.568 495.574 115.8C493.654 111.896 492.31 107.8 491.542 103.512C490.198 95.896 489.398 89.976 489.142 85.752C488.758 79.928 488.47 74.776 488.278 70.296C488.15 67.672 488.054 64.184 487.99 59.832C487.798 50.104 488.086 41.144 488.854 32.952C489.174 29.816 489.622 26.264 490.198 22.296C490.326 21.464 490.71 20.28 491.35 18.744C491.734 17.72 492.214 16.984 492.79 16.536C493.366 16.024 494.294 15.576 495.574 15.192C495.766 15.128 495.958 15.032 496.15 14.904C496.342 14.712 496.534 14.52 496.726 14.328C496.982 14.136 497.142 14.008 497.206 13.944C498.422 14.328 499.062 15.192 499.126 16.536C499.19 17.368 499.286 18.552 499.414 20.088C499.542 21.624 499.638 22.68 499.702 23.256C499.83 25.048 499.958 26.264 500.086 26.904C500.342 25.752 500.47 24.568 500.47 23.352C500.534 22.136 500.502 20.632 500.374 18.84C500.31 16.984 500.278 15.8 500.278 15.288C500.982 16.184 501.43 17.56 501.622 19.416C502.006 22.552 502.166 28.824 502.102 38.232C502.038 40.152 501.846 46.744 501.526 58.008C501.462 60.12 501.302 64.408 501.046 70.872C500.854 77.336 500.726 82.328 500.662 85.848C500.47 91.288 500.406 94.904 500.47 96.696C500.726 101.176 501.11 105.976 501.622 111.096C501.942 113.592 502.678 115.544 503.83 116.952C504.598 116.056 504.982 115.576 504.982 115.512C505.814 113.336 506.358 111.576 506.614 110.232C507.062 108.44 507.542 106.008 508.054 102.936C508.31 101.272 508.246 100.056 507.862 99.288C507.158 98.072 507.254 96.824 508.15 95.544C508.918 94.52 509.398 92.984 509.59 90.936C510.614 81.016 511.382 74.04 511.894 70.008C513.686 54.52 515.542 43.064 517.462 35.64C518.998 29.688 520.95 24.824 523.318 21.048C525.174 17.912 527.542 15.352 530.422 13.368C534.006 10.936 537.782 9.91199 541.75 10.296C545.718 10.616 549.206 12.216 552.214 15.096C557.142 19.704 560.918 25.88 563.542 33.624C567.254 44.824 568.598 56.216 567.574 67.8C566.358 82.008 562.518 94.296 556.054 104.664C551.766 111.576 546.198 116.76 539.35 120.216C535.958 121.88 532.438 122.136 528.79 120.984C528.214 120.792 527.734 120.6 527.35 120.408C523.062 117.912 519.478 114.456 516.598 110.04C516.598 110.04 517.206 110.264 518.422 110.712C517.91 110.136 517.302 109.432 516.598 108.6ZM551.542 99C554.55 91.256 556.15 81.336 556.342 69.24C556.534 67.256 556.118 62.36 555.094 54.552C553.75 43.736 550.87 34.008 546.454 25.368C544.214 21.08 541.558 18.008 538.486 16.152C535.99 14.616 533.59 14.712 531.286 16.44C529.43 17.848 527.798 19.704 526.39 22.008C524.726 24.696 523.254 27.96 521.974 31.8C520.246 37.304 518.806 43.96 517.654 51.768C516.63 58.488 515.638 66.04 514.678 74.424C514.422 76.984 514.038 80.632 513.526 85.368C513.078 90.104 512.758 93.304 512.566 94.968C512.438 96.504 512.822 97.72 513.718 98.616C514.294 99.128 515.126 100.088 516.214 101.496C517.366 102.904 518.326 103.896 519.094 104.472C519.542 104.856 519.83 105.176 519.958 105.432C520.086 105.816 520.278 106.168 520.534 106.488C520.79 106.872 521.014 107.16 521.206 107.352C521.398 107.608 521.686 107.896 522.07 108.216C522.454 108.6 522.742 108.856 522.934 108.984C523.126 109.112 523.446 109.336 523.894 109.656C524.342 110.04 524.63 110.296 524.758 110.424C527.19 112.28 528.886 113.464 529.846 113.976C534.262 116.536 538.454 116.152 542.422 112.824C542.678 112.568 543.126 112.12 543.766 111.48C546.838 108.6 549.43 104.44 551.542 99ZM542.902 17.976C543.606 18.744 544.278 19.544 544.918 20.376C545.558 21.208 546.198 22.168 546.838 23.256C547.478 24.28 547.958 25.08 548.278 25.656C548.662 26.232 549.206 27.224 549.91 28.632C550.614 29.976 551.062 30.808 551.254 31.128C551.062 28.696 550.038 26.04 548.182 23.16C546.39 20.216 544.63 18.488 542.902 17.976ZM554.326 30.552C553.43 25.816 551.51 22.36 548.566 20.184C549.206 21.336 550.166 23.064 551.446 25.368C552.726 27.672 553.686 29.4 554.326 30.552ZM490.87 38.52C491.126 35.896 491.446 31.928 491.83 26.616C490.806 31.48 490.486 35.448 490.87 38.52ZM494.902 22.008C494.838 23.16 494.71 24.824 494.518 27C494.39 29.176 494.294 30.744 494.23 31.704C494.294 31.704 494.39 31.736 494.518 31.8C494.646 31.8 494.742 31.8 494.806 31.8C495.062 27.448 495.254 24.216 495.382 22.104C495.318 22.04 495.222 22.008 495.094 22.008C495.03 22.008 494.966 22.008 494.902 22.008ZM558.646 26.52C557.686 23.832 556.31 21.688 554.518 20.088C555.798 23.352 557.174 25.496 558.646 26.52ZM580.975 24.984L581.071 24.888V24.984C581.007 24.984 580.975 24.984 580.975 24.984ZM584.719 20.568C586.319 21.72 586.671 23.16 585.775 24.888C585.583 25.976 585.487 26.584 585.487 26.712C585.487 27.416 585.327 28.088 585.007 28.728C584.943 28.856 584.847 29.368 584.719 30.264C584.655 31.096 584.431 31.672 584.047 31.992C583.983 32.696 583.951 33.08 583.951 33.144C583.951 33.208 583.951 33.4 583.951 33.72C583.951 33.976 583.919 34.168 583.855 34.296C583.855 34.488 583.727 34.712 583.471 34.968C583.215 35.288 583.087 35.608 583.087 35.928C583.151 37.336 582.991 38.328 582.607 38.904C582.415 39.16 582.319 39.544 582.319 40.056C582.383 40.76 582.063 42.104 581.359 44.088C581.231 44.408 580.847 44.728 580.207 45.048C580.079 45.176 579.951 45.208 579.823 45.144C578.927 44.824 578.351 44.344 578.095 43.704C577.711 42.488 577.519 41.24 577.519 39.96C577.519 39.512 577.743 39.256 578.191 39.192C578.511 39.192 578.639 39.032 578.575 38.712C578.575 38.648 578.479 37.624 578.287 35.64C578.223 35.448 578.223 35.352 578.287 35.352C578.415 35.288 578.671 35.224 579.055 35.16C579.247 35.096 579.343 35.032 579.343 34.968C579.343 34.648 579.407 33.88 579.535 32.664L579.439 32.76C579.823 32.056 580.015 31.704 580.015 31.704C580.079 31.256 580.207 30.584 580.399 29.688C580.655 28.728 580.815 27.896 580.879 27.192C581.007 26.424 581.071 25.688 581.071 24.984C581.135 24.92 581.263 24.888 581.455 24.888C581.647 24.824 581.775 24.76 581.839 24.696C581.903 23.16 581.967 22.296 582.031 22.104C582.031 21.528 582.319 21.144 582.895 20.952C583.023 20.952 583.631 20.824 584.719 20.568ZM580.687 34.68L580.879 34.584L580.687 34.392V34.68ZM581.647 31.224C581.647 31.032 581.647 30.936 581.647 30.936C581.647 30.872 581.615 30.776 581.551 30.648C581.423 30.776 581.359 30.84 581.359 30.84C581.295 30.968 581.295 31.096 581.359 31.224C581.359 31.224 581.455 31.224 581.647 31.224ZM582.511 26.424C582.575 26.296 582.671 25.816 582.799 24.984C582.671 24.984 582.511 24.952 582.319 24.888C582.191 24.824 582.063 24.792 581.935 24.792C581.999 25.752 582.031 26.36 582.031 26.616C582.095 26.808 582.159 26.904 582.223 26.904C582.415 26.968 582.511 26.808 582.511 26.424ZM583.183 23.928C583.247 23.608 583.183 23.416 582.991 23.352L582.799 23.544C582.799 23.608 582.799 23.736 582.799 23.928C582.799 24.12 582.799 24.408 582.799 24.792C582.991 24.344 583.119 24.056 583.183 23.928ZM628.246 57.24C629.078 56.792 629.942 56.952 630.838 57.72C628.982 65.4 627.99 69.496 627.862 70.008C626.262 77.432 625.078 83.192 624.31 87.288C623.478 92.216 623.19 96.536 623.446 100.248C623.638 103.32 624.054 105.944 624.694 108.12C625.59 111.448 627.478 113.912 630.358 115.512C633.238 117.112 636.342 117.432 639.67 116.472C643.51 115.32 646.646 112.952 649.078 109.368C653.238 103.16 655.35 96.056 655.414 88.056C655.478 80.568 654.134 73.24 651.382 66.072C649.206 60.312 646.198 55.832 642.358 52.632C639.734 50.52 636.31 48.92 632.086 47.832C630.806 47.576 629.398 47.352 627.862 47.16C626.39 46.904 625.11 46.744 624.022 46.68C622.998 46.552 621.59 46.456 619.798 46.392C618.006 46.264 616.662 46.168 615.766 46.104C611.734 45.72 608.182 45.272 605.11 44.76C603.638 44.504 602.006 43.896 600.214 42.936C596.502 40.824 595.158 37.656 596.182 33.432C596.95 30.104 598.614 27.064 601.174 24.312C608.918 15.672 618.582 10.968 630.166 10.2C635.094 9.81599 639.51 10.904 643.414 13.464C647.83 16.408 649.686 20.568 648.982 25.944C648.79 27.8 648.502 29.336 648.118 30.552C647.734 32.024 647.19 32.92 646.486 33.24C645.782 33.56 644.598 33.464 642.934 32.952C643.126 31.672 643.254 31 643.318 30.936C644.022 28.696 644.31 26.36 644.182 23.928C644.054 21.176 642.998 18.904 641.014 17.112C637.75 14.04 634.198 12.696 630.358 13.08C619.03 14.04 610.262 19.256 604.054 28.728C603.35 29.816 602.71 31.352 602.134 33.336C601.174 36.536 602.166 38.968 605.11 40.632C606.262 41.272 607.51 41.72 608.854 41.976C611.03 42.36 613.174 42.584 615.286 42.648C616.566 42.712 618.39 42.744 620.758 42.744C623.19 42.744 624.886 42.744 625.846 42.744C633.014 42.872 638.838 43.48 643.318 44.568C651.318 46.424 657.654 49.816 662.326 54.744C666.87 59.48 669.91 65.144 671.446 71.736C672.79 77.112 673.11 82.2 672.406 87C670.934 97.496 665.718 106.552 656.758 114.168C650.742 119.288 643.51 122.2 635.062 122.904C633.078 123.032 631.222 122.904 629.494 122.52C625.014 121.496 621.686 118.392 619.51 113.208C618.678 111.16 618.198 108.856 618.07 106.296C617.622 98.168 618.582 89.592 620.95 80.568C621.27 79.288 623.062 72.536 626.326 60.312C626.71 58.776 627.35 57.752 628.246 57.24ZM658.39 82.584C659.222 80.152 658.806 76.152 657.142 70.584C655.542 64.952 653.59 61.272 651.286 59.544C651.414 60.12 651.478 60.44 651.478 60.504C654.486 66.456 656.502 72.888 657.526 79.8C657.526 79.864 657.814 80.792 658.39 82.584ZM662.134 79.8C662.134 79.8 662.326 80.152 662.71 80.856C663.222 78.36 663.094 75.608 662.326 72.6C661.558 69.592 660.406 67.192 658.87 65.4C660.534 72.632 661.622 77.432 662.134 79.8ZM669.718 78.072C670.102 76.024 670.006 74.168 669.43 72.504C668.918 70.84 668.054 68.92 666.838 66.744C666.838 67.64 666.838 68.12 666.838 68.184C666.902 68.376 667.254 69.72 667.894 72.216C668.534 74.712 669.142 76.664 669.718 78.072ZM644.95 24.888C644.95 24.696 644.95 24.376 644.95 23.928C644.95 23.48 644.95 23.16 644.95 22.968C644.95 22.968 644.886 22.968 644.758 22.968C644.694 22.968 644.662 22.968 644.662 22.968L644.758 24.888C644.758 24.888 644.79 24.888 644.854 24.888C644.918 24.888 644.95 24.888 644.95 24.888ZM719.865 72.024C719.929 72.088 720.025 72.312 720.153 72.696C719.321 73.336 718.905 73.656 718.905 73.656C714.425 75.64 710.777 76.696 707.961 76.824C706.809 76.888 706.105 77.048 705.849 77.304C705.593 77.56 705.305 78.296 704.985 79.512C704.025 83.352 703.225 86.232 702.585 88.152C701.689 90.84 700.313 93.24 698.457 95.352C695.769 98.296 692.249 99.64 687.897 99.384C685.017 99.192 682.457 97.592 680.217 94.584C676.441 89.528 674.777 83.832 675.225 77.496C675.481 73.208 676.281 69.176 677.625 65.4C679.353 60.664 681.785 57.464 684.921 55.8C686.521 54.968 687.961 54.424 689.241 54.168C690.329 53.912 691.513 54.008 692.793 54.456C694.393 54.968 695.577 55.192 696.345 55.128C697.625 55 698.809 55.224 699.897 55.8C702.265 56.888 703.961 59.224 704.985 62.808C705.497 64.664 705.785 67.416 705.849 71.064C705.849 71.256 705.849 71.576 705.849 72.024C705.849 72.408 705.849 72.696 705.849 72.888C705.913 73.848 706.425 74.392 707.385 74.52C709.625 74.712 711.865 74.424 714.105 73.656C714.361 73.592 714.969 73.368 715.929 72.984C716.889 72.6 717.625 72.344 718.137 72.216C718.201 72.152 718.777 72.088 719.865 72.024ZM681.465 93.912C681.465 93.976 681.689 93.976 682.137 93.912C679.705 89.176 678.169 84.056 677.529 78.552C677.017 81.048 677.113 83.736 677.817 86.616C678.585 89.496 679.801 91.928 681.465 93.912ZM680.697 78.84C680.313 81.4 680.377 83.896 680.889 86.328C681.465 88.696 682.393 90.648 683.673 92.184C683.097 89.624 682.105 85.176 680.697 78.84ZM686.265 86.136C686.009 88.056 686.457 89.784 687.609 91.32C687.353 89.016 686.905 87.288 686.265 86.136ZM701.625 78.648C701.625 78.584 701.593 77.784 701.529 76.248C696.281 73.944 692.793 70.424 691.065 65.688C690.489 65.56 690.105 65.624 689.913 65.88C689.721 66.072 689.561 66.424 689.433 66.936C689.433 67.064 689.433 67.128 689.433 67.128C688.153 73.016 687.641 78.424 687.897 83.352C687.961 84.824 688.377 87.576 689.145 91.608C689.273 92.312 689.657 93.144 690.297 94.104C691.833 96.344 693.529 96.472 695.385 94.488C696.473 93.336 697.401 91.992 698.169 90.456C699.641 87.512 700.793 83.576 701.625 78.648ZM701.817 72.312C702.329 70.84 702.489 69.048 702.297 66.936C702.169 64.824 701.721 63.192 700.953 62.04C700.889 61.976 700.793 61.848 700.665 61.656C700.153 60.824 699.737 60.216 699.417 59.832C699.097 59.384 698.585 58.936 697.881 58.488C697.177 58.04 696.441 57.784 695.673 57.72C694.201 58.744 693.689 60.376 694.137 62.616C694.905 66.392 697.081 69.528 700.665 72.024C700.729 72.024 701.113 72.12 701.817 72.312ZM766.84 75.576C766.84 76.152 766.84 76.472 766.84 76.536C763.96 83.896 761.304 89.336 758.872 92.856C756.952 95.608 754.68 97.272 752.056 97.848C749.432 98.488 747.096 97.816 745.048 95.832C743.256 94.168 742.04 92.184 741.4 89.88C741.016 88.408 740.568 87.416 740.056 86.904C739.224 87.992 738.776 88.568 738.712 88.632C736.216 92.152 734.968 93.912 734.968 93.912C733.048 96.216 730.296 97.4 726.712 97.464C724.152 97.528 722.136 96.632 720.664 94.776C718.936 92.664 717.624 90.712 716.728 88.92C715.32 85.976 714.488 82.808 714.232 79.416C713.72 72.248 714.36 66.04 716.152 60.792C716.856 58.744 717.944 57.304 719.416 56.472C719.928 56.216 720.184 56.088 720.184 56.088C720.696 56.344 721.016 56.472 721.144 56.472C721.336 56.408 721.528 56.216 721.72 55.896C721.976 55.512 722.168 55.256 722.296 55.128C722.296 55.128 722.52 55.032 722.968 54.84C724.184 55.352 724.888 56.472 725.08 58.2C725.208 59.48 725.4 61.656 725.656 64.728C725.656 64.792 725.72 66.008 725.848 68.376C725.976 67.8 726.072 67.256 726.136 66.744C726.264 66.168 726.328 65.528 726.328 64.824C726.392 64.12 726.424 63.576 726.424 63.192C726.424 62.744 726.392 62.104 726.328 61.272C726.264 60.376 726.2 59.8 726.136 59.544C726.136 59.224 726.072 58.552 725.944 57.528C725.88 56.44 725.816 55.8 725.752 55.608C726.648 56.312 727.224 57.432 727.48 58.968C728.184 63.32 728.312 69.784 727.864 78.36C727.672 82.264 727.544 85.88 727.48 89.208C727.48 90.232 727.64 91.224 727.96 92.184C728.28 93.336 728.792 94.008 729.496 94.2C730.264 94.392 731.064 94.104 731.896 93.336C732.984 92.248 733.944 91.032 734.776 89.688C738.168 84.056 739.896 78.424 739.96 72.792C740.024 70.168 740.728 65.592 742.072 59.064C742.136 58.616 742.232 58.232 742.36 57.912C742.488 57.528 742.68 57.176 742.936 56.856C743.192 56.536 743.384 56.28 743.512 56.088C743.704 55.896 743.992 55.64 744.376 55.32C744.824 55 745.112 54.808 745.24 54.744C745.368 54.616 745.688 54.392 746.2 54.072C746.712 53.688 747.032 53.496 747.16 53.496C747.544 53.24 747.992 53.24 748.504 53.496C749.08 53.752 749.464 54.104 749.656 54.552C749.784 54.808 749.88 55.16 749.944 55.608C750.072 55.992 750.168 56.248 750.232 56.376C750.36 56.952 750.616 57.432 751 57.816C750.936 56.216 750.84 54.776 750.712 53.496C751.544 54.712 751.96 55.352 751.96 55.416C752.792 57.784 753.272 60.824 753.4 64.536C753.784 71.576 753.336 78.648 752.056 85.752C751.864 86.968 751.704 88.824 751.576 91.32C751.512 92.088 751.608 92.888 751.864 93.72C752.056 94.232 752.376 94.552 752.824 94.68C753.272 94.808 753.72 94.648 754.168 94.2C755.064 93.24 755.96 92.152 756.856 90.936C757.368 90.168 757.848 89.4 758.296 88.632C758.744 87.864 759.192 87 759.64 86.04C760.152 85.016 760.536 84.248 760.792 83.736C761.048 83.16 761.464 82.232 762.04 80.952C762.616 79.672 763 78.872 763.192 78.552C763.576 77.592 764.152 76.632 764.92 75.672C765.496 74.968 766.136 74.936 766.84 75.576ZM716.824 68.664C715.8 71.672 715.704 76.024 716.536 81.72C717.368 87.416 718.744 90.936 720.664 92.28C718.872 87.416 717.848 83.576 717.592 80.76C717.528 80.184 717.272 76.152 716.824 68.664ZM721.336 89.208C721.848 90.744 722.52 91.8 723.352 92.376C723.224 91.992 722.968 91.096 722.584 89.688C722.264 88.28 722.04 87.288 721.912 86.712C721.784 86.136 721.592 85.336 721.336 84.312C721.144 83.224 720.984 82.264 720.856 81.432C720.792 80.536 720.76 79.672 720.76 78.84C720.76 78.264 720.696 73.784 720.568 65.4C720.504 65.4 720.376 65.4 720.184 65.4C719.864 73.016 719.704 77.112 719.704 77.688C719.704 82.232 720.248 86.072 721.336 89.208ZM726.424 91.8C726.488 91.736 726.552 91.704 726.616 91.704C726.744 91.64 726.808 91.608 726.808 91.608C726.744 91.48 726.648 91.288 726.52 91.032C726.392 90.712 726.296 90.456 726.232 90.264C726.168 90.328 726.104 90.392 726.04 90.456C725.976 90.456 725.912 90.456 725.848 90.456C725.912 90.584 725.976 90.744 726.04 90.936C726.104 91.064 726.168 91.224 726.232 91.416C726.296 91.544 726.36 91.672 726.424 91.8ZM743.704 89.496C743.64 91.096 743.768 92.216 744.088 92.856C744.408 93.496 745.048 94.104 746.008 94.68C744.792 91.928 744.024 90.2 743.704 89.496ZM746.392 91.032C746.584 91.928 746.744 92.536 746.872 92.856C747 93.112 747.352 93.624 747.928 94.392C747.608 92.728 747.096 91.608 746.392 91.032ZM806.99 76.056C807.502 76.056 807.854 76.248 808.046 76.632C808.302 76.952 808.302 77.336 808.046 77.784C807.79 78.168 807.342 78.712 806.702 79.416C802.414 84.088 799.822 86.872 798.926 87.768C797.582 89.112 797.326 90.584 798.158 92.184C799.694 95.256 800.654 97.848 801.038 99.96C801.998 106.104 801.55 111.352 799.694 115.704C798.99 117.24 798.286 118.488 797.582 119.448C792.91 125.72 787.182 130.648 780.398 134.232C776.942 136.024 773.678 136.728 770.606 136.344C769.582 136.216 768.686 135.96 767.918 135.576C766.958 135.192 766.446 134.744 766.382 134.232C766.318 133.976 766.094 133.176 765.71 131.832C765.326 130.552 765.198 129.496 765.326 128.664C766.094 125.08 767.598 121.368 769.838 117.528C772.654 112.728 777.39 106.52 784.046 98.904C784.43 98.456 784.878 97.944 785.39 97.368C786.222 96.472 786.702 95.832 786.83 95.448C786.958 95 786.926 93.944 786.734 92.28C786.734 91.704 786.702 91.256 786.638 90.936C786.446 88.44 786.03 86.968 785.39 86.52C784.814 86.072 783.342 86.136 780.974 86.712C779.246 87.16 777.006 87.928 774.254 89.016C773.294 89.4 772.59 89.656 772.142 89.784C771.758 89.912 771.182 89.944 770.414 89.88C769.646 89.816 768.942 89.528 768.302 89.016C768.046 88.824 767.758 88.664 767.438 88.536C767.118 88.408 766.702 88.28 766.19 88.152C765.742 88.024 765.422 87.928 765.23 87.864C765.422 85.944 766.158 84.184 767.438 82.584C769.038 80.536 771.342 77.592 774.35 73.752C777.358 69.912 779.406 67.288 780.494 65.88C780.622 65.752 780.846 65.496 781.166 65.112C781.55 64.664 781.838 64.312 782.03 64.056C782.222 63.736 782.35 63.384 782.414 63C781.646 62.488 780.334 62.296 778.478 62.424C773.934 62.616 769.326 62.872 764.654 63.192C763.886 63.384 763.054 63.416 762.158 63.288C761.262 63.16 760.526 62.84 759.95 62.328C759.95 62.328 759.854 62.104 759.662 61.656C760.238 61.08 761.166 60.792 762.446 60.792C763.662 60.728 765.902 60.632 769.166 60.504C772.494 60.312 774.766 60.248 775.982 60.312C777.262 60.312 779.534 60.408 782.798 60.6C785.678 60.92 787.79 61.848 789.134 63.384C790.094 64.536 790.446 65.688 790.19 66.84C789.614 69.08 789.102 70.648 788.654 71.544C786.99 75 784.814 78.104 782.126 80.856C782.062 80.92 781.07 82.04 779.15 84.216C780.366 84.216 781.006 84.216 781.07 84.216C782.094 84.088 783.022 83.96 783.854 83.832C786.926 83.256 789.87 83.864 792.686 85.656C792.75 85.72 793.518 86.136 794.99 86.904C798.062 83.768 799.79 82.008 800.174 81.624C801.326 80.472 802.702 79.064 804.302 77.4C805.134 76.504 806.03 76.056 806.99 76.056ZM788.558 66.84C788.494 66.968 788.398 67.256 788.27 67.704C788.206 68.088 788.142 68.376 788.078 68.568C788.142 68.568 788.206 68.6 788.27 68.664C788.398 68.664 788.494 68.664 788.558 68.664C788.622 68.344 788.782 67.768 789.038 66.936C788.91 66.936 788.75 66.904 788.558 66.84ZM787.214 104.088C787.278 102.808 786.958 101.944 786.254 101.496C785.422 102.264 785.006 102.648 785.006 102.648C781.422 106.36 777.838 110.872 774.254 116.184C771.886 119.704 770.35 122.84 769.646 125.592C769.134 127.256 768.942 128.952 769.07 130.68C769.134 132.024 769.582 132.952 770.414 133.464C771.246 133.976 772.302 134.04 773.582 133.656C775.054 133.272 776.526 132.376 777.998 130.968C781.454 127.768 783.982 123.48 785.582 118.104C786.478 115.032 787.022 110.36 787.214 104.088ZM788.846 114.168C789.806 112.056 790.35 109.304 790.478 105.912C790.67 102.52 790.35 99.768 789.518 97.656C789.262 98.616 789.102 99.544 789.038 100.44C788.974 101.4 788.974 102.424 789.038 103.512C789.102 104.6 789.102 105.4 789.038 105.912C788.846 109.944 788.782 112.696 788.846 114.168ZM792.398 112.632C793.422 111.224 793.998 109.464 794.126 107.352C794.254 105.304 793.87 103.32 792.974 101.4C792.846 104.024 792.654 107.768 792.398 112.632ZM799.214 104.472C798.638 106.648 798.51 108.696 798.83 110.616C799.79 109.272 799.918 107.224 799.214 104.472ZM856.501 82.776C856.501 83.352 856.501 83.64 856.501 83.64C853.685 89.464 851.989 92.888 851.413 93.912C849.877 96.664 847.509 98.264 844.309 98.712C841.557 99.096 839.125 98.456 837.013 96.792C835.029 95.192 833.397 93.112 832.117 90.552C832.053 90.36 831.925 90.072 831.733 89.688C831.541 89.24 831.381 88.92 831.253 88.728C831.189 88.472 831.029 88.184 830.773 87.864C830.581 87.48 830.357 87.192 830.101 87C829.525 87.448 828.885 88.6 828.181 90.456C827.029 93.592 825.493 96.632 823.573 99.576C821.077 103.352 817.525 105.208 812.917 105.144C809.909 105.144 807.445 103.864 805.525 101.304C803.029 97.976 801.781 94.168 801.781 89.88C801.781 79.768 805.141 70.712 811.861 62.712C814.805 59.192 818.421 56.696 822.709 55.224C824.309 54.648 826.133 54.488 828.181 54.744C830.677 55 832.309 56.344 833.077 58.776C833.141 58.84 833.429 59.832 833.941 61.752C835.157 60.856 836.117 60.504 836.821 60.696C837.589 60.824 838.197 61.496 838.645 62.712C839.029 63.672 839.669 66.136 840.565 70.104C840.629 70.296 840.949 72.024 841.525 75.288C841.717 74.392 841.813 73.592 841.813 72.888C841.877 72.12 841.813 71.128 841.621 69.912C841.493 68.632 841.429 67.96 841.429 67.896C841.365 67.256 841.077 66.2 840.565 64.728C840.053 63.192 839.765 61.88 839.701 60.792C840.661 61.752 841.141 62.232 841.141 62.232C842.421 64.472 843.253 67.096 843.637 70.104C844.341 76.056 844.277 81.624 843.445 86.808C843.317 87.704 843.221 88.824 843.157 90.168C843.093 91 843.125 91.704 843.253 92.28C843.701 94.136 844.437 95.192 845.461 95.448C846.421 95.64 847.381 94.968 848.341 93.432C848.533 93.112 849.813 90.808 852.181 86.52C853.269 84.6 853.909 83.512 854.101 83.256C854.805 82.232 855.605 82.072 856.501 82.776ZM805.237 97.56C805.685 98.776 806.069 99.576 806.389 99.96C806.709 100.344 807.221 100.76 807.925 101.208C806.453 96.536 805.237 92.792 804.277 89.976C803.829 92.28 804.149 94.808 805.237 97.56ZM807.925 91.704C807.733 93.688 807.797 95.256 808.117 96.408C808.437 97.56 809.077 98.552 810.037 99.384C809.653 95.544 808.949 92.984 807.925 91.704ZM814.261 99C814.325 98.936 814.453 98.872 814.645 98.808C814.453 98.296 814.261 97.688 814.069 96.984C814.005 97.048 813.909 97.112 813.781 97.176C813.653 97.176 813.557 97.208 813.493 97.272C813.557 97.464 813.685 97.752 813.877 98.136C814.069 98.52 814.197 98.808 814.261 99ZM828.373 73.56C828.309 70.744 828.789 67 829.813 62.328C829.109 61.304 828.725 60.76 828.661 60.696C827.957 59.672 827.349 59.16 826.837 59.16C826.325 59.16 825.685 59.64 824.917 60.6C823.765 62.2 822.741 63.96 821.845 65.88C820.565 68.568 819.221 73.112 817.813 79.512C816.469 85.528 815.733 90.808 815.605 95.352C815.477 97.784 816.053 99.512 817.333 100.536C818.613 99.704 819.925 98.168 821.269 95.928C822.869 93.304 824.693 89.176 826.741 83.544C827.957 80.152 828.501 76.824 828.373 73.56ZM831.829 81.24C831.573 83.032 831.893 85.24 832.789 87.864C833.685 90.424 834.805 92.376 836.149 93.72C834.357 87.768 833.109 83.64 832.405 81.336C832.405 81.272 832.309 81.24 832.117 81.24C832.117 81.24 832.021 81.24 831.829 81.24ZM838.261 92.952C838.453 92.696 838.549 92.472 838.549 92.28C838.549 92.024 838.485 91.736 838.357 91.416C838.293 91.032 838.229 90.808 838.165 90.744C838.101 90.424 837.909 89.656 837.589 88.44C837.333 87.224 837.141 86.296 837.013 85.656C836.821 84.12 836.565 81.944 836.245 79.128C835.989 76.312 835.829 74.616 835.765 74.04C835.765 73.912 835.733 73.656 835.669 73.272C835.669 72.824 835.637 72.504 835.573 72.312C835.573 72.12 835.477 71.864 835.285 71.544C835.157 71.224 834.933 70.936 834.613 70.68C834.549 72.216 834.517 73.016 834.517 73.08C834.837 77.304 835.093 80.28 835.285 82.008C835.541 84.248 835.893 86.392 836.341 88.44C836.789 90.616 837.429 92.12 838.261 92.952Z" fill="black"/>
</svg>
