<svg version="1.1" id="Layer_1" xmlns="http://www.w3.org/2000/svg" xmlns:xlink="http://www.w3.org/1999/xlink" x="0px" y="0px"
	 width="100%" viewBox="0 0 617 618" enable-background="new 0 0 617 618" xml:space="preserve">
<path fill="#000000" opacity="1.000000" stroke="none" 
	d="
M618.000000,2.000000 
	C618.000000,207.620117 618.000000,413.240234 618.000000,618.930176 
	C412.426483,618.930176 206.852905,618.930176 1.000000,618.930176 
	C1.000000,413.639893 1.000000,208.279648 1.459693,2.463345 
	C207.279587,2.004853 412.639801,2.002427 618.000000,2.000000 
M78.102684,109.644447 
	C72.809250,122.697159 69.598412,136.220047 68.760399,150.304855 
	C66.635742,186.014587 77.767838,217.131241 101.298714,243.877853 
	C103.052986,245.871857 105.699524,247.596161 108.247169,248.296112 
	C130.373489,254.375122 152.349350,261.286316 174.796753,265.851288 
	C217.981537,274.633392 261.466583,281.930237 304.787872,290.052307 
	C351.235413,298.760406 397.403564,308.644653 442.518860,322.995300 
	C473.606720,332.883972 503.499542,345.266632 530.237122,364.248901 
	C539.525574,370.843201 548.149109,378.373901 557.135925,385.524323 
	C557.321960,384.781586 557.673767,383.838837 557.783997,382.868622 
	C559.830139,364.852875 559.116577,346.872711 555.718445,329.131500 
	C548.839966,293.218903 532.587219,261.961243 507.103271,235.732895 
	C503.209229,231.725067 497.954437,228.433334 492.709351,226.444412 
	C462.949371,215.159500 432.447723,206.119965 401.219604,200.039261 
	C356.002228,191.234589 310.611420,183.322495 265.306549,174.964569 
	C223.915359,167.328674 182.614166,159.274185 142.269424,147.033463 
	C139.933670,146.324799 137.579193,145.311630 135.571365,143.944016 
	C111.540642,127.575783 113.784752,91.102737 130.729004,74.722183 
	C152.612778,53.566422 179.138138,52.301613 206.696121,59.627075 
	C221.529648,63.570122 233.125977,73.428467 243.691055,84.275047 
	C262.059265,103.132706 276.956818,124.574127 289.630524,147.536438 
	C292.533630,152.796280 295.684387,154.831802 301.471893,152.958359 
	C300.238037,118.924698 299.002350,84.840508 297.771729,50.896164 
	C294.076508,49.866745 291.850677,50.680882 289.949890,53.806309 
	C286.497253,59.483459 281.314819,61.826668 274.594727,60.227863 
	C262.144318,57.265728 249.685471,54.337879 237.215286,51.460125 
	C207.188141,44.530743 177.067352,41.723106 146.819748,50.039555 
	C114.746155,58.858055 91.100601,77.573326 78.102684,109.644447 
M234.499924,568.833801 
	C284.808868,568.243347 335.153503,568.607300 385.414276,566.728088 
	C419.103729,565.468506 451.440277,556.576050 481.362885,540.311951 
	C500.406219,529.961182 516.390198,516.239136 528.235718,497.877930 
	C547.307312,468.315948 553.135498,435.141235 554.785522,400.853729 
	C554.871460,399.068848 553.218140,396.620392 551.653625,395.422333 
	C525.152832,375.128693 494.868164,362.283173 463.740112,351.143646 
	C459.594604,349.660126 455.383209,348.360687 450.868622,346.865448 
	C450.868622,348.286835 450.881805,349.104614 450.866730,349.921875 
	C450.240082,383.888397 450.294342,417.886475 448.725037,451.809479 
	C447.787140,472.082703 443.544800,492.081757 435.378052,510.927734 
	C430.018127,523.296692 422.782013,534.340576 411.838684,542.632690 
	C389.556396,559.516541 363.744537,559.894287 337.107727,558.937988 
	C337.107727,478.568695 337.107727,398.485687 337.107727,317.979462 
	C299.915710,311.082336 263.093964,304.253845 225.831284,297.343597 
	C225.831284,300.270569 225.831299,302.084686 225.831299,303.898773 
	C225.831299,351.561401 225.917709,399.224213 225.791565,446.886536 
	C225.736008,467.878296 225.637756,488.884644 224.791870,509.853424 
	C224.371689,520.269226 222.726532,530.715698 220.698349,540.962769 
	C218.878143,550.158997 212.971817,556.486877 203.394699,558.090942 
	C198.213120,558.958801 192.734329,559.518982 187.581253,558.815125 
	C172.099625,556.700378 166.203735,545.821472 172.479279,532.346863 
	C173.731750,529.657593 175.279907,528.807068 178.137024,528.935486 
	C183.282944,529.166748 188.446732,529.000854 194.068817,529.000854 
	C195.651367,522.301147 197.808258,515.783447 198.627090,509.101776 
	C199.913223,498.606903 199.761917,488.166077 193.060593,478.948608 
	C185.861206,469.046051 176.056625,464.508423 164.075577,463.859619 
	C151.875458,463.198944 140.053986,464.176117 129.893509,471.871002 
	C118.059509,480.833282 113.628075,493.459839 113.378624,507.700165 
	C113.100220,523.593262 118.027710,537.591187 130.585693,548.018738 
	C142.802155,558.162720 157.127060,564.414490 172.747101,565.860535 
	C192.916916,567.727844 213.241806,567.920227 234.499924,568.833801 
z"/>
<path fill="#E5E6EB" opacity="1.000000" stroke="none" 
	d="
M618.000000,1.500000 
	C412.639801,2.002427 207.279587,2.004853 1.459693,2.003640 
	C1.166667,1.666667 1.315919,1.056198 1.502793,1.044456 
	C2.830883,0.961004 4.166667,1.000000 5.500000,1.000000 
	C209.666672,1.000000 413.833344,1.000000 618.000000,1.500000 
z"/>
<path fill="#FEFEFE" opacity="1.000000" stroke="none" 
	d="
M78.234245,109.283615 
	C91.100601,77.573326 114.746155,58.858055 146.819748,50.039555 
	C177.067352,41.723106 207.188141,44.530743 237.215286,51.460125 
	C249.685471,54.337879 262.144318,57.265728 274.594727,60.227863 
	C281.314819,61.826668 286.497253,59.483459 289.949890,53.806309 
	C291.850677,50.680882 294.076508,49.866745 297.771729,50.896164 
	C299.002350,84.840508 300.238037,118.924698 301.471893,152.958359 
	C295.684387,154.831802 292.533630,152.796280 289.630524,147.536438 
	C276.956818,124.574127 262.059265,103.132706 243.691055,84.275047 
	C233.125977,73.428467 221.529648,63.570122 206.696121,59.627075 
	C179.138138,52.301613 152.612778,53.566422 130.729004,74.722183 
	C113.784752,91.102737 111.540642,127.575783 135.571365,143.944016 
	C137.579193,145.311630 139.933670,146.324799 142.269424,147.033463 
	C182.614166,159.274185 223.915359,167.328674 265.306549,174.964569 
	C310.611420,183.322495 356.002228,191.234589 401.219604,200.039261 
	C432.447723,206.119965 462.949371,215.159500 492.709351,226.444412 
	C497.954437,228.433334 503.209229,231.725067 507.103271,235.732895 
	C532.587219,261.961243 548.839966,293.218903 555.718445,329.131500 
	C559.116577,346.872711 559.830139,364.852875 557.783997,382.868622 
	C557.673767,383.838837 557.321960,384.781586 557.135925,385.524323 
	C548.149109,378.373901 539.525574,370.843201 530.237122,364.248901 
	C503.499542,345.266632 473.606720,332.883972 442.518860,322.995300 
	C397.403564,308.644653 351.235413,298.760406 304.787872,290.052307 
	C261.466583,281.930237 217.981537,274.633392 174.796753,265.851288 
	C152.349350,261.286316 130.373489,254.375122 108.247169,248.296112 
	C105.699524,247.596161 103.052986,245.871857 101.298714,243.877853 
	C77.767838,217.131241 66.635742,186.014587 68.760399,150.304855 
	C69.598412,136.220047 72.809250,122.697159 78.234245,109.283615 
z"/>
<path fill="#FEFEFE" opacity="1.000000" stroke="none" 
	d="
M233.999908,568.833801 
	C213.241806,567.920227 192.916916,567.727844 172.747101,565.860535 
	C157.127060,564.414490 142.802155,558.162720 130.585693,548.018738 
	C118.027710,537.591187 113.100220,523.593262 113.378624,507.700165 
	C113.628075,493.459839 118.059509,480.833282 129.893509,471.871002 
	C140.053986,464.176117 151.875458,463.198944 164.075577,463.859619 
	C176.056625,464.508423 185.861206,469.046051 193.060593,478.948608 
	C199.761917,488.166077 199.913223,498.606903 198.627090,509.101776 
	C197.808258,515.783447 195.651367,522.301147 194.068817,529.000854 
	C188.446732,529.000854 183.282944,529.166748 178.137024,528.935486 
	C175.279907,528.807068 173.731750,529.657593 172.479279,532.346863 
	C166.203735,545.821472 172.099625,556.700378 187.581253,558.815125 
	C192.734329,559.518982 198.213120,558.958801 203.394699,558.090942 
	C212.971817,556.486877 218.878143,550.158997 220.698349,540.962769 
	C222.726532,530.715698 224.371689,520.269226 224.791870,509.853424 
	C225.637756,488.884644 225.736008,467.878296 225.791565,446.886536 
	C225.917709,399.224213 225.831299,351.561401 225.831299,303.898773 
	C225.831299,302.084686 225.831284,300.270569 225.831284,297.343597 
	C263.093964,304.253845 299.915710,311.082336 337.107727,317.979462 
	C337.107727,398.485687 337.107727,478.568695 337.107727,558.937988 
	C363.744537,559.894287 389.556396,559.516541 411.838684,542.632690 
	C422.782013,534.340576 430.018127,523.296692 435.378052,510.927734 
	C443.544800,492.081757 447.787140,472.082703 448.725037,451.809479 
	C450.294342,417.886475 450.240082,383.888397 450.866730,349.921875 
	C450.881805,349.104614 450.868622,348.286835 450.868622,346.865448 
	C455.383209,348.360687 459.594604,349.660126 463.740112,351.143646 
	C494.868164,362.283173 525.152832,375.128693 551.653625,395.422333 
	C553.218140,396.620392 554.871460,399.068848 554.785522,400.853729 
	C553.135498,435.141235 547.307312,468.315948 528.235718,497.877930 
	C516.390198,516.239136 500.406219,529.961182 481.362885,540.311951 
	C451.440277,556.576050 419.103729,565.468506 385.414276,566.728088 
	C335.153503,568.607300 284.808868,568.243347 233.999908,568.833801 
z"/>
</svg>